<?xml version="1.0" encoding="UTF-8"?>
<svg version="1.1" xmlns="http://www.w3.org/2000/svg" width="500" height="500">
<path d="M0 0 C0.89332031 0.28875 1.78664063 0.5775 2.70703125 0.875 C8.41993525 2.93061763 13.62440146 5.7221802 18 10 C18 10.66 18 11.32 18 12 C18.66 12 19.32 12 20 12 C28.73659574 21.94686008 32.38111287 32.06493156 34 45 C34.25450928 46.82011597 34.25450928 46.82011597 34.51416016 48.67700195 C35.30305705 55.86523709 35.16450106 63.09836496 35.16796875 70.3203125 C35.17119026 71.90819324 35.17455497 73.4960737 35.17805481 75.08395386 C35.1840184 78.40395799 35.18589768 81.72393621 35.18530273 85.04394531 C35.18520151 89.25612843 35.19882545 93.4681415 35.21607494 97.6802845 C35.22730733 100.95953096 35.2292185 104.23873784 35.22869301 107.51800156 C35.22985737 109.06861835 35.23419 110.6192367 35.24202538 112.16983414 C35.33551994 132.58927745 33.15480609 149.65649792 18.09375 164.93359375 C6.5027817 175.62764189 -5.52824673 178.33299838 -20.9375 179 C-35.52378477 178.99920559 -35.52378477 178.99920559 -48.2265625 185.0234375 C-48.68804687 185.79945313 -49.14953125 186.57546875 -49.625 187.375 C-50.17285156 188.25285156 -50.72070312 189.13070312 -51.28515625 190.03515625 C-51.85105469 191.01355469 -52.41695313 191.99195313 -53 193 C-62.13224782 208.42295473 -62.13224782 208.42295473 -67 211 C-71.91919026 211.78590614 -76.24448311 211.87775845 -80.75 209.625 C-85.66585547 203.88983529 -89.63814168 197.82084362 -93.125 191.125 C-96.01515792 185.73257377 -98.26675347 182.87266305 -104.2421875 180.96484375 C-111.85461729 179.13568117 -119.88399268 179.2828748 -127.671875 178.96484375 C-143.60850289 178.11339085 -155.33028769 173.39909859 -166.3125 161.625 C-179.3556075 146.11789684 -180.32175728 128.94239188 -180.30078125 109.5234375 C-180.30468734 107.98092539 -180.30902577 106.43841432 -180.31376648 104.89590454 C-180.32116137 101.68398535 -180.32098819 98.47217617 -180.31567383 95.26025391 C-180.31105026 92.01401893 -180.31794004 88.76815923 -180.33618164 85.52197266 C-180.64596249 29.92678811 -180.64596249 29.92678811 -166 14 C-158.65700447 6.68061538 -151.61471364 1.14532641 -141.38061523 -1.2097168 C-140.28478072 -1.46215794 -140.28478072 -1.46215794 -139.16680813 -1.71969891 C-129.81549246 -3.68368181 -120.42610233 -3.62509392 -110.91015625 -3.64453125 C-108.91164293 -3.66213072 -106.9131426 -3.68126346 -104.91465759 -3.701828 C-100.74704807 -3.74085984 -96.57962434 -3.76752989 -92.41186523 -3.78393555 C-87.15071889 -3.80477057 -81.8900566 -3.84742222 -76.62912178 -3.89808369 C-13.43821159 -4.49949088 -13.43821159 -4.49949088 0 0 Z M-123.75 86.625 C-125.54968753 90.04440631 -125.68908179 93.26562129 -125 97 C-123.20636089 99.8100346 -121.98119065 101.50940468 -119 103 C-114.54395339 103.36524972 -112.05544326 103.53894975 -108.0625 101.5 C-105.28716784 98.13596102 -104.69862785 95.32253772 -105 91 C-106.55088218 87.32685799 -108.48187185 84.909841 -112 83 C-117.04895055 82.47406765 -120.05084214 83.1900677 -123.75 86.625 Z M-81 87 C-82.59450995 89.70373426 -83.01756432 91.31499165 -82.9375 94.4375 C-81.63649533 97.99357944 -80.08887764 100.7926181 -77 103 C-73.80991062 103.87265126 -71.19008938 103.87265126 -68 103 C-64.929127 100.80548462 -63.39606745 97.99016862 -62 94.5 C-62 90.17558315 -63.85862936 87.18072825 -66.8125 84.125 C-72.40127832 81.25077115 -76.45359962 83.17689059 -81 87 Z M-39 88 C-40.2088894 91.8684461 -40.40876145 95.17621893 -39 99 C-36.87675341 101.38060981 -35.24010192 102.75197962 -32.06640625 103.38671875 C-28.31154866 103.5925616 -26.39334685 103.23942852 -23.125 101.25 C-20.11138364 98.05911209 -18.96777235 96.5146995 -19.0625 92.0625 C-20.23168481 88.24316294 -21.9917304 86.56803502 -25 84 C-30.87696664 81.06151668 -34.83675008 83.54629078 -39 88 Z " fill="#976BFC" transform="translate(322,91)"/>
<path d="M0 0 C0.495 0.99 0.495 0.99 1 2 C-0.98 4.97 -0.98 4.97 -3 8 C-5.15503279 7.53820726 -6.85507072 7.08799278 -8.75 5.9375 C-12.22713268 4.48869472 -15.2455468 4.81833291 -19 5 C-19.99 5.495 -19.99 5.495 -21 6 C-21.25030977 8.41619823 -21.25030977 8.41619823 -21 11 C-17.8766271 13.0822486 -15.81566224 13.59916656 -12.1875 14.375 C-6.05571378 15.86351332 -1.85537064 17.42642137 1.9375 22.6875 C3.77590578 28.41900036 2.96096085 33.00415824 0.375 38.375 C-3.3187645 42.45758181 -6.48640112 43.71643244 -11.8046875 44.31640625 C-19.97128552 44.63849854 -26.35070527 43.20425879 -32.5625 37.75 C-33.036875 37.1725 -33.51125 36.595 -34 36 C-32.71700242 33.13792848 -31.469364 30.9754912 -29 29 C-26 29 -26 29 -24 30.9375 C-23.34 31.618125 -22.68 32.29875 -22 33 C-19.15785932 33.94738023 -17.32391609 34.13460559 -14.375 34.125 C-13.57835938 34.12757813 -12.78171875 34.13015625 -11.9609375 34.1328125 C-9.99646464 34.21570074 -9.99646464 34.21570074 -9 33 C-8.95919217 31.00041636 -8.95745644 28.99954746 -9 27 C-10.093125 26.5875 -11.18625 26.175 -12.3125 25.75 C-13.03566406 25.47285156 -13.75882813 25.19570313 -14.50390625 24.91015625 C-16.26635507 24.26751059 -18.04775074 23.67573051 -19.83984375 23.12109375 C-24.24413868 21.70817229 -27.34277839 20.64193738 -30.6875 17.375 C-32.48638788 12.7492883 -32.99620451 8.88835234 -32 4 C-30.16712416 0.23050064 -27.81917269 -2.18207739 -23.984375 -3.90625 C-15.70217557 -6.1704484 -6.61291036 -5.74279058 0 0 Z " fill="#FDFDFD" transform="translate(104,322)"/>
<path d="M0 0 C3.25100655 2.6531975 4.94698095 4.45907053 5.703125 8.66796875 C0.078125 12.66796875 0.078125 12.66796875 -3.296875 12.66796875 C-3.833125 11.86359375 -4.369375 11.05921875 -4.921875 10.23046875 C-7.89979935 7.01744511 -9.77383899 6.70552996 -14.04296875 6.48046875 C-17.8290313 6.79542716 -19.63782733 8.00892108 -22.296875 10.66796875 C-24.8171743 16.9139279 -24.74480028 23.10609459 -23.296875 29.66796875 C-21.46841543 32.6170971 -20.36743145 34.13269052 -17.296875 35.66796875 C-10.89943868 36.19711125 -10.89943868 36.19711125 -5.296875 33.66796875 C-3.52959642 30.63452205 -3.52959642 30.63452205 -2.296875 27.66796875 C0.6750635 28.79248602 3.03753187 29.89090666 5.703125 31.66796875 C5.28526915 36.40366842 3.24121047 39.60514849 -0.296875 42.66796875 C-5.83912074 45.96868399 -11.98967262 46.52848628 -18.296875 45.66796875 C-24.96647475 43.86363259 -29.61557421 40.52061306 -33.296875 34.66796875 C-36.27928259 27.88976967 -36.56480419 19.12532808 -34.5390625 12.00390625 C-32.12729865 6.32581656 -29.52824281 1.82497428 -23.921875 -1.08203125 C-16.05059418 -3.79626601 -7.4521847 -4.32176017 0 0 Z " fill="#FDFDFD" transform="translate(318.296875,320.33203125)"/>
<path d="M0 0 C3.3 0 6.6 0 10 0 C10.33 5.61 10.66 11.22 11 17 C12.65 16.01 14.3 15.02 16 14 C19.41422778 13.35983229 22.57826112 13.40344684 26 14 C30.31644933 17.05748494 31.61626021 20.01107354 33 25 C33.22705078 27.97607422 33.22705078 27.97607422 33.1953125 31.0546875 C33.18886719 32.16328125 33.18242187 33.271875 33.17578125 34.4140625 C33.15902344 35.55617188 33.14226562 36.69828125 33.125 37.875 C33.11597656 39.0403125 33.10695313 40.205625 33.09765625 41.40625 C33.07417432 44.27104577 33.04133141 47.13541535 33 50 C29.7 50 26.4 50 23 50 C22.98018066 49.2886792 22.96036133 48.5773584 22.93994141 47.84448242 C22.84475133 44.62511184 22.73504771 41.4063955 22.625 38.1875 C22.5940625 37.06794922 22.563125 35.94839844 22.53125 34.79492188 C22.49257813 33.72177734 22.45390625 32.64863281 22.4140625 31.54296875 C22.36693115 30.0583313 22.36693115 30.0583313 22.31884766 28.54370117 C22.16226567 25.75924906 22.16226567 25.75924906 20 23 C17.04253508 22.41654524 17.04253508 22.41654524 14 23 C11.05838821 25.99311272 10.60273286 28.30161688 10.48828125 32.421875 C10.45283203 33.44667969 10.41738281 34.47148437 10.38085938 35.52734375 C10.34702148 37.12255859 10.34702148 37.12255859 10.3125 38.75 C10.27833984 39.82894531 10.24417969 40.90789062 10.20898438 42.01953125 C10.12660142 44.67932392 10.06162163 47.33964537 10 50 C6.7 50 3.4 50 0 50 C0 33.5 0 17 0 0 Z " fill="#FDFDFD" transform="translate(330,315)"/>
<path d="M0 0 C2.97 0 5.94 0 9 0 C10.71443219 1.71443219 10.23052967 4.00445241 10.31640625 6.34765625 C10.37924805 7.96704102 10.37924805 7.96704102 10.44335938 9.61914062 C10.48267578 10.75544922 10.52199219 11.89175781 10.5625 13.0625 C10.60568359 14.20267578 10.64886719 15.34285156 10.69335938 16.51757812 C10.79982839 19.34492195 10.90184207 22.17235738 11 25 C11.80050781 23.80890625 11.80050781 23.80890625 12.6171875 22.59375 C18.63035757 14.35425053 18.63035757 14.35425053 22.82421875 13.26953125 C25.30086109 13.3083944 27.57642426 13.49909395 30 14 C28.10128168 18.39869744 25.01395952 21.86914038 21.92578125 25.49023438 C20.51040484 27.19018031 20.51040484 27.19018031 19 30 C19.77118317 34.58344712 23.25870851 38.14277257 26.125 41.6875 C31 47.73760331 31 47.73760331 31 50 C27.10133034 50.78702116 23.87054124 51.0122954 20 50 C16.30441687 46.38888734 13.65797433 42.41026852 11 38 C10.67 41.96 10.34 45.92 10 50 C6.7 50 3.4 50 0 50 C0 33.5 0 17 0 0 Z " fill="#FDFDFD" transform="translate(196,315)"/>
<path d="M0 0 C3.3 0 6.6 0 10 0 C10.48210937 1.24136719 10.96421875 2.48273438 11.4609375 3.76171875 C12.0989454 5.40365086 12.73696696 7.04557766 13.375 8.6875 C13.69210938 9.50412109 14.00921875 10.32074219 14.3359375 11.16210938 C14.6453125 11.95810547 14.9546875 12.75410156 15.2734375 13.57421875 C15.55622559 14.30213623 15.83901367 15.03005371 16.13037109 15.7800293 C17.07497589 18.19139689 18.03817903 20.59544758 19 23 C21.64 15.41 24.28 7.82 27 0 C30.3 0 33.6 0 37 0 C36.2691368 4.46211215 34.81755022 8.59776926 33.26953125 12.828125 C32.99662766 13.57656677 32.72372406 14.32500854 32.44255066 15.09613037 C31.86381664 16.67701114 31.28290279 18.25709539 30.69995117 19.83642578 C29.82195983 22.22427239 28.96066818 24.61772368 28.09960938 27.01171875 C20.94855265 46.60167734 20.94855265 46.60167734 15.01196289 50.20751953 C12.20326985 51.31381945 9.75397455 51.19030379 6.75 51.125 C5.67234375 51.10695313 4.5946875 51.08890625 3.484375 51.0703125 C2.66453125 51.04710937 1.8446875 51.02390625 1 51 C0.02408417 47.61682513 0.14143345 45.4342662 1 42 C1.61488281 42.03480469 2.22976562 42.06960938 2.86328125 42.10546875 C4.07564453 42.14607422 4.07564453 42.14607422 5.3125 42.1875 C6.11300781 42.22230469 6.91351563 42.25710938 7.73828125 42.29296875 C10.0355437 42.15197518 10.0355437 42.15197518 11.85546875 40.86328125 C13.59329387 38.03412569 12.70976486 36.1958109 12 33 C11.14187705 30.53166805 10.24962154 28.12450632 9.27734375 25.703125 C9.01240616 25.02828064 8.74746857 24.35343628 8.47450256 23.65814209 C7.63434061 21.51987456 6.78653511 19.38475816 5.9375 17.25 C5.08577848 15.10063449 4.23578488 12.95063582 3.38978577 10.79901123 C2.86471289 9.46431954 2.33620634 8.13097255 1.80393982 6.7991333 C0 2.22403747 0 2.22403747 0 0 Z " fill="#FDFDFD" transform="translate(227,329)"/>
<path d="M0 0 C2.88815983 2.66599369 4.21178968 4.62889524 4.75634766 8.54003906 C4.803479 9.7654541 4.803479 9.7654541 4.8515625 11.015625 C4.89023437 11.90507812 4.92890625 12.79453125 4.96875 13.7109375 C4.9996875 14.63132812 5.030625 15.55171875 5.0625 16.5 C5.10117187 17.43585938 5.13984375 18.37171875 5.1796875 19.3359375 C5.27374844 21.64043054 5.35939399 23.94492013 5.4375 26.25 C6.4275 26.58 7.4175 26.91 8.4375 27.25 C8.9325 30.22 8.9325 30.22 9.4375 33.25 C5.78230082 35.68679946 4.45127491 35.36604695 0.3125 34.7421875 C-2.01257112 34.13185633 -3.19229621 33.21966795 -4.5625 31.25 C-5.201875 31.91 -5.84125 32.57 -6.5 33.25 C-10.5326604 35.88357414 -13.85516614 35.97420521 -18.5625 35.25 C-22.40196981 33.67962226 -23.85763333 32.08595 -25.5625 28.25 C-26.10599296 23.17739902 -25.60805926 20.3282867 -22.5625 16.25 C-20.07421875 14.921875 -20.07421875 14.921875 -17.25 14 C-16.27804687 13.6803125 -15.30609375 13.360625 -14.3046875 13.03125 C-11.40458015 12.20500859 -8.5628892 11.5743664 -5.5625 11.25 C-5.8925 9.93 -6.2225 8.61 -6.5625 7.25 C-11.74400772 6.94520543 -14.21867337 7.54978345 -18.5625 10.25 C-20.75 10.25 -20.75 10.25 -22.5625 9.25 C-23.8125 6.6875 -23.8125 6.6875 -24.5625 4.25 C-17.45239025 -2.05214273 -9.07498003 -4.45788493 0 0 Z M-10.0625 18.6875 C-10.8771875 18.95433594 -11.691875 19.22117187 -12.53125 19.49609375 C-14.52813148 20.07667342 -14.52813148 20.07667342 -15.5625 21.25 C-15.8125773 23.70809998 -15.8125773 23.70809998 -15.5625 26.25 C-14.9025 26.91 -14.2425 27.57 -13.5625 28.25 C-9.05932877 27.89736215 -9.05932877 27.89736215 -5.5625 25.25 C-5.10438325 23.27764667 -5.10438325 23.27764667 -4.9375 21.125 C-4.81375 19.84625 -4.69 18.5675 -4.5625 17.25 C-6.46333174 17.25 -8.2759766 18.0967035 -10.0625 18.6875 Z " fill="#FDFDFD" transform="translate(394.5625,330.75)"/>
<path d="M0 0 C3.0326544 1.58336482 4.64385449 2.99598795 6.23046875 6.03125 C6.41609375 6.77375 6.60171875 7.51625 6.79296875 8.28125 C1.04296875 12.28125 1.04296875 12.28125 -1.20703125 12.28125 C-1.76390625 11.600625 -2.32078125 10.92 -2.89453125 10.21875 C-5.16746765 7.88451659 -5.16746765 7.88451659 -8.83203125 8.34375 C-12.46220049 8.9563345 -12.46220049 8.9563345 -14.20703125 12.28125 C-14.52433981 14.92231542 -14.52433981 14.92231542 -14.45703125 17.78125 C-14.4621875 18.7403125 -14.46734375 19.699375 -14.47265625 20.6875 C-14.38685734 23.51747897 -14.38685734 23.51747897 -12.20703125 26.28125 C-8.8828657 27.45886741 -8.8828657 27.45886741 -5.20703125 27.28125 C-2.51935547 24.84374975 -2.51935547 24.84374975 -0.20703125 22.28125 C2.90486549 22.37277637 4.13971252 23.51241251 6.79296875 25.28125 C6.56877936 29.20456434 5.83344783 30.24253088 2.91796875 33.03125 C-2.02826989 36.59254182 -6.2898954 36.94297184 -12.20703125 36.28125 C-16.88935888 34.97086597 -20.27817198 32.73518381 -23.20703125 28.84375 C-26.26842762 23.33116802 -25.92482798 17.39049772 -25.20703125 11.28125 C-23.50106478 5.97379876 -20.5960504 3.48157646 -16.20703125 0.28125 C-11.06538892 -1.43263078 -5.19712497 -1.69251504 0 0 Z " fill="#FDFDFD" transform="translate(183.20703125,329.71875)"/>
<path d="M0 0 C0 2.64 0 5.28 0 8 C3.3 8 6.6 8 10 8 C10 10.64 10 13.28 10 16 C6.7 16 3.4 16 0 16 C0.33 22.27 0.66 28.54 1 35 C3.64 35 6.28 35 9 35 C9.66 37.64 10.32 40.28 11 43 C6.66266785 45.46864029 2.89262491 45.56015741 -2 45 C-6.26957756 43.23647883 -8.11771186 41.18049264 -10 37 C-10.36399568 33.38790001 -10.28246205 29.81310244 -10.1875 26.1875 C-10.17396484 25.20845703 -10.16042969 24.22941406 -10.14648438 23.22070312 C-10.11125312 20.81323375 -10.06199265 18.40690436 -10 16 C-11.65 16 -13.3 16 -15 16 C-15 13.36 -15 10.72 -15 8 C-13.35 8 -11.7 8 -10 8 C-10 6.02 -10 4.04 -10 2 C-3.375 0 -3.375 0 0 0 Z " fill="#FDFDFD" transform="translate(420,321)"/>
<path d="M0 0 C0 2.64 0 5.28 0 8 C3.3 8 6.6 8 10 8 C10 10.64 10 13.28 10 16 C6.7 16 3.4 16 0 16 C0.14086602 18.60452271 0.28748464 21.20850197 0.4375 23.8125 C0.47681641 24.55048828 0.51613281 25.28847656 0.55664062 26.04882812 C0.74381035 29.23071342 0.98720793 31.96162378 2 35 C5.28976808 36.09658936 6.71303767 35.79953138 10 35 C10.66 37.64 11.32 40.28 12 43 C7.67034646 45.16482677 3.7513708 45.62644848 -1 45 C-4.73708375 43.33907389 -6.84840937 41.45075747 -9 38 C-9.34057617 35.52636719 -9.34057617 35.52636719 -9.29296875 32.796875 C-9.28330078 31.8171875 -9.27363281 30.8375 -9.26367188 29.828125 C-9.23853516 28.81234375 -9.21339844 27.7965625 -9.1875 26.75 C-9.17396484 25.71875 -9.16042969 24.6875 -9.14648438 23.625 C-9.11117607 21.08280208 -9.06186036 18.54166777 -9 16 C-10.98 16 -12.96 16 -15 16 C-15 13.36 -15 10.72 -15 8 C-13.02 8 -11.04 8 -9 8 C-9 5.69 -9 3.38 -9 1 C-5.94152152 0.45627049 -3.11227195 0 0 0 Z " fill="#FDFDFD" transform="translate(124,321)"/>
<path d="M0 0 C2.97 0 5.94 0 9 0 C10 1 10 1 10.11352539 4.32641602 C10.11336629 5.80225556 10.10767314 7.27810069 10.09765625 8.75390625 C10.0962413 9.52935287 10.09482635 10.3047995 10.09336853 11.10374451 C10.08775345 13.59003494 10.07519846 16.0762366 10.0625 18.5625 C10.05748694 20.24413933 10.0529237 21.92578006 10.04882812 23.60742188 C10.03777913 27.73831566 10.02050445 31.86914276 10 36 C6.7 36 3.4 36 0 36 C0 24.12 0 12.24 0 0 Z " fill="#FEFEFE" transform="translate(141,329)"/>
<path d="M0 0 C0.66 0.33 1.32 0.66 2 1 C1.71788123 2.6266848 1.42397625 4.25132896 1.125 5.875 C0.96257812 6.77992187 0.80015625 7.68484375 0.6328125 8.6171875 C0 11 0 11 -2 13 C-2.19904923 16.10783006 -2.27261029 19.12659365 -2.25878906 22.2355957 C-2.2622937 23.19345978 -2.26579834 24.15132385 -2.26940918 25.13821411 C-2.27824033 28.31747603 -2.27237105 31.4965169 -2.265625 34.67578125 C-2.26697159 36.88054955 -2.26891206 39.08531756 -2.27142334 41.29008484 C-2.27437675 45.91794656 -2.2700712 50.54573121 -2.26074219 55.17358398 C-2.24936758 61.10544402 -2.25589318 67.03712269 -2.26788712 72.96897602 C-2.27511692 77.52515527 -2.27281227 82.0812916 -2.26763153 86.63747215 C-2.2662971 88.82434295 -2.26793553 91.01121763 -2.27259064 93.19808388 C-2.27767195 96.2575676 -2.26992194 99.31675875 -2.25878906 102.3762207 C-2.26283752 103.28082535 -2.26688599 104.18542999 -2.27105713 105.1174469 C-2.2404219 109.66404358 -1.7442574 112.76334865 0 117 C-0.66 117.99 -1.32 118.98 -2 120 C-6.97471203 108.90501812 -6.31368379 95.46820082 -6.30078125 83.5234375 C-6.30468734 81.98092539 -6.30902577 80.43841432 -6.31376648 78.89590454 C-6.32116137 75.68398535 -6.32098819 72.47217617 -6.31567383 69.26025391 C-6.31105026 66.01401893 -6.31794004 62.76815923 -6.33618164 59.52197266 C-6.58965167 13.96771015 -6.58965167 13.96771015 0 0 Z " fill="#9174D9" transform="translate(148,117)"/>
<path d="M0 0 C0.66 0 1.32 0 2 0 C10.73659574 9.94686008 14.38111287 20.06493156 16 33 C16.25559692 34.81141479 16.25559692 34.81141479 16.51635742 36.65942383 C17.31607105 43.94464848 17.14368453 51.28246946 17.1328125 58.6015625 C17.13348737 60.20860814 17.13445892 61.81565368 17.13571167 63.42269897 C17.13717918 66.77627544 17.1350641 70.12982511 17.13037109 73.48339844 C17.12466513 77.76806576 17.12796432 82.05267054 17.13394356 86.33733559 C17.13756691 89.6505683 17.13640259 92.96378633 17.13381577 96.2770195 C17.13315189 97.85657127 17.13395595 99.43612441 17.13629532 101.01567459 C17.13885212 103.22614297 17.13493929 105.43651165 17.12939453 107.64697266 C17.12859894 108.90111969 17.12780334 110.15526672 17.12698364 111.44741821 C16.99895423 115.02925709 16.57206426 118.46416092 16 122 C15.67 122 15.34 122 15 122 C14.98969254 120.93955475 14.97938507 119.8791095 14.96876526 118.78652954 C14.87115431 108.80954784 14.76843207 98.83263022 14.66066074 88.85575294 C14.60541542 83.72612308 14.55199284 78.59648753 14.50268555 73.46679688 C14.45506574 68.51955462 14.4027238 63.57238312 14.34705925 58.62522507 C14.32662488 56.73453907 14.30791361 54.84383366 14.29092598 52.95311356 C14.26690591 50.31193247 14.23684813 47.67088579 14.20532227 45.02978516 C14.1995668 44.24216293 14.19381134 43.45454071 14.18788147 42.64305115 C14.21412356 38.69207078 14.21412356 38.69207078 13 35 C12.7948445 33.04532395 12.63423728 31.08582319 12.5 29.125 C12.25959071 25.63047919 11.97678298 22.36990127 11 19 C10.34 19 9.68 19 9 19 C8.87882812 18.36191406 8.75765625 17.72382812 8.6328125 17.06640625 C8.46523438 16.24011719 8.29765625 15.41382812 8.125 14.5625 C7.88136719 13.32693359 7.88136719 13.32693359 7.6328125 12.06640625 C7.31957031 11.04353516 7.31957031 11.04353516 7 10 C6.34 9.67 5.68 9.34 5 9 C5 8.01 5 7.02 5 6 C4.360625 5.7525 3.72125 5.505 3.0625 5.25 C1 4 1 4 0.25 1.875 C0.1675 1.25625 0.085 0.6375 0 0 Z " fill="#9075D1" transform="translate(340,103)"/>
<path d="M0 0 C2.125 1.625 2.125 1.625 3.125 4.625 C4.115 5.285 5.105 5.945 6.125 6.625 C5.465 8.605 4.805 10.585 4.125 12.625 C3.856875 12.068125 3.58875 11.51125 3.3125 10.9375 C0.58922643 5.55304958 0.58922643 5.55304958 -3.875 1.625 C-7.30275647 1.40620703 -10.68107285 1.25617408 -13.875 2.625 C-16.22371017 5.56088771 -16.3632846 8.96427868 -16.24609375 12.65234375 C-15.94947439 14.93720983 -15.94947439 14.93720983 -13.875 17.625 C-9.73834406 20.38277063 -7.78807062 20.24888198 -2.875 19.625 C0.18296601 17.93507141 1.15606711 16.57839933 3.125 13.625 C3.125 15.275 3.125 16.925 3.125 18.625 C2.465 18.955 1.805 19.285 1.125 19.625 C1.125 20.615 1.125 21.605 1.125 22.625 C-1.12473447 22.679138 -3.37484383 22.71785491 -5.625 22.75 C-6.87796875 22.77320313 -8.1309375 22.79640625 -9.421875 22.8203125 C-14.42442744 22.5373627 -14.42442744 22.5373627 -16.875 20.625 C-18.76845194 17.0885204 -19.21320105 13.77988548 -19.5 9.8125 C-19.57476562 8.83667969 -19.64953125 7.86085937 -19.7265625 6.85546875 C-19.77554688 6.11941406 -19.82453125 5.38335937 -19.875 4.625 C-18.9159375 4.43744141 -18.9159375 4.43744141 -17.9375 4.24609375 C-17.256875 4.04113281 -16.57625 3.83617187 -15.875 3.625 C-15.1912955 2.30032254 -14.52535814 0.96636367 -13.875 -0.375 C-9.54603942 -3.74196934 -4.59476959 -2.1974985 0 0 Z " fill="#9173DB" transform="translate(213.875,173.375)"/>
<path d="M0 0 C-1.18320576 0.63309191 -2.37187848 1.25596718 -3.5625 1.875 C-4.22378906 2.22304688 -4.88507813 2.57109375 -5.56640625 2.9296875 C-10.91425625 5.28171142 -16.08521565 6.25498782 -21.89453125 6.52734375 C-23.82329102 6.63272461 -23.82329102 6.63272461 -25.79101562 6.74023438 C-28.460048 6.87379974 -31.12932873 6.99879286 -33.79882812 7.12304688 C-46.68122015 7.46505235 -46.68122015 7.46505235 -57.5078125 13.48046875 C-58.04148437 14.37378906 -58.57515625 15.26710938 -59.125 16.1875 C-59.68445313 17.08855469 -60.24390625 17.98960937 -60.8203125 18.91796875 C-61.20960938 19.60503906 -61.59890625 20.29210937 -62 21 C-63.2077558 17.37673261 -62.54311128 16.35853631 -61 13 C-60.34 13 -59.68 13 -59 13 C-58.95875 12.401875 -58.9175 11.80375 -58.875 11.1875 C-58 9 -58 9 -55.41992188 7.40454102 C-51.56476843 5.82125305 -48.5631531 5.51508874 -44.40625 5.33984375 C-43.69650024 5.30443985 -42.98675049 5.26903595 -42.25549316 5.2325592 C-40.00403933 5.12151211 -37.75236495 5.02802914 -35.5 4.9375 C-33.24780631 4.84166711 -30.99605345 4.74175956 -28.74450684 4.63172913 C-26.70185822 4.5325907 -24.65854563 4.44742275 -22.61523438 4.36303711 C-18.3609953 3.93583198 -14.77471519 2.94281745 -11 0.9375 C-7.17539582 -0.85528321 -4.00060461 -1.33353487 0 0 Z " fill="#9377DC" transform="translate(331,263)"/>
<path d="M0 0 C0.66 0.33 1.32 0.66 2 1 C1.71788123 2.6266848 1.42397625 4.25132896 1.125 5.875 C0.96257812 6.77992187 0.80015625 7.68484375 0.6328125 8.6171875 C0 11 0 11 -2 13 C-2.21735168 15.58785466 -2.31138821 18.07198042 -2.31884766 20.66259766 C-2.32889328 21.45292892 -2.3389389 22.24326019 -2.34928894 23.05754089 C-2.38024134 25.67637385 -2.39718933 28.29510405 -2.4140625 30.9140625 C-2.43276447 32.72725313 -2.45233715 34.54043498 -2.4727478 36.35360718 C-2.52417765 41.13096953 -2.56374513 45.90836013 -2.60089111 50.68585205 C-2.64086291 55.55886892 -2.69198629 60.43176717 -2.7421875 65.3046875 C-2.83907519 74.86970847 -2.92343871 84.43479625 -3 94 C-3.33 94 -3.66 94 -4 94 C-4 72.55 -4 51.1 -4 29 C-4.66 28.67 -5.32 28.34 -6 28 C-5.57914429 24.6435291 -5.1353057 21.29047305 -4.6875 17.9375 C-4.56955078 16.99455078 -4.45160156 16.05160156 -4.33007812 15.08007812 C-3.57927131 9.55491 -2.47748596 5.00355008 0 0 Z " fill="#9069F1" transform="translate(148,117)"/>
<path d="M0 0 C1.1875 2.1875 1.1875 2.1875 2 5 C1 7.8125 1 7.8125 -1 10 C-4.21125525 10.53520921 -6.06792834 10.51113607 -8.9375 8.9375 C-10.64787795 5.81857551 -9.80513863 3.34442199 -9 0 C-5.93109813 -1.53445094 -3.29905734 -0.54984289 0 0 Z " fill="#FCFCFC" transform="translate(150,316)"/>
<path d="M0 0 C1.32 0 2.64 0 4 0 C4.99 1.98 5.98 3.96 7 6 C6.34 6 5.68 6 5 6 C5.05800781 6.59167969 5.11601562 7.18335938 5.17578125 7.79296875 C5.41668713 12.01226315 5.41231687 14.340293 3.125 18 C-0.6379141 20.40826502 -3.39791664 20.67487506 -7.79296875 20.859375 C-10.04225182 20.85886181 -10.04225182 20.85886181 -12 22 C-12.99 21.34 -13.98 20.68 -15 20 C-15.1875 16.875 -15.1875 16.875 -15 14 C-14.525625 14.495 -14.05125 14.99 -13.5625 15.5 C-9.78680921 17.71016046 -6.27022221 17.83991503 -2 17 C0.64820478 14.68282082 1.66030351 12.86056443 2.9375 9.625 C3.02784516 5.83050313 1.66420583 3.3949799 0 0 Z " fill="#9071E0" transform="translate(256,176)"/>
<path d="M0 0 C1.32 0.33 2.64 0.66 4 1 C3.2884375 1.804375 3.2884375 1.804375 2.5625 2.625 C-0.15049751 6.74875621 -0.14189127 11.17569693 0 16 C0.639375 16.309375 1.27875 16.61875 1.9375 16.9375 C4 18 4 18 5 19 C7.55619004 19.0315579 10.09780341 18.93173369 12.65234375 18.83984375 C15 19 15 19 17 21 C16.34 21 15.68 21 15 21 C14.67 21.66 14.34 22.32 14 23 C12.06318839 23.08107583 10.1254066 23.13922475 8.1875 23.1875 C7.10855469 23.22230469 6.02960938 23.25710937 4.91796875 23.29296875 C2 23 2 23 0.19921875 21.984375 C-1.67297447 18.88641359 -1.96440256 15.59047952 -2.375 12.0625 C-2.48199219 11.34642578 -2.58898437 10.63035156 -2.69921875 9.89257812 C-3.12019588 6.50276974 -3.28768241 4.49305996 -1.5390625 1.49609375 C-1.03117187 1.00238281 -0.52328125 0.50867188 0 0 Z " fill="#9170DF" transform="translate(283,174)"/>
<path d="M0 0 C0.66 0 1.32 0 2 0 C3.2342474 10.69681079 -3.09358787 19.29375531 -9.38671875 27.453125 C-11 29 -11 29 -14 29 C-13.34 27.35 -12.68 25.7 -12 24 C-11.01 24 -10.02 24 -9 24 C-8.67 22.68 -8.34 21.36 -8 20 C-7.34 20 -6.68 20 -6 20 C-5.505 15.545 -5.505 15.545 -5 11 C-4.34 11 -3.68 11 -3 11 C-1.38935371 7.34920174 -0.55105909 3.9492568 0 0 Z " fill="#8F74D8" transform="translate(353,225)"/>
<path d="M0 0 C-1.41083142 3.34527039 -3.02703962 5.03611382 -5.875 7.25 C-10.04199709 10.7427012 -11.90236634 14.01812006 -14 19 C-14.66 19 -15.32 19 -16 19 C-16 18.01 -16 17.02 -16 16 C-17.65 17.65 -19.3 19.3 -21 21 C-18.60430499 13.92639526 -8.40601313 0 0 0 Z " fill="#9273DF" transform="translate(170,95)"/>
<path d="M0 0 C0.99 0 1.98 0 3 0 C5.12111639 2.93693038 6.13334065 5.5333626 7 9 C7.66 9.33 8.32 9.66 9 10 C9.33 10.99 9.66 11.98 10 13 C14.75016635 15.2012966 18.88081854 15.1765235 24 15 C24 15.99 24 16.98 24 18 C14.23172628 18.61586314 14.23172628 18.61586314 10.25 16.625 C1.03300971 5.87184466 1.03300971 5.87184466 0 0 Z " fill="#9276DC" transform="translate(231,284)"/>
<path d="M0 0 C2.9375 0.375 2.9375 0.375 6 1 C6.33 1.66 6.66 2.32 7 3 C7.99 3.33 8.98 3.66 10 4 C11.1875 6.0625 11.1875 6.0625 12 8 C11.41992188 7.89300781 10.83984375 7.78601563 10.2421875 7.67578125 C4.85595601 6.84918137 1.76833393 6.94337569 -3 10 C-3 7 -3 7 -1 4.8125 C-0.34 4.214375 0.32 3.61625 1 3 C0.67 2.01 0.34 1.02 0 0 Z " fill="#9371E5" transform="translate(244,168)"/>
<path d="M0 0 C0.66 0.33 1.32 0.66 2 1 C1.71788123 2.6266848 1.42397625 4.25132896 1.125 5.875 C0.96257812 6.77992187 0.80015625 7.68484375 0.6328125 8.6171875 C0 11 0 11 -2 13 C-2.38796304 16.63715353 -2.50785545 20.25594045 -2.65625 23.91015625 C-2.7696875 24.92980469 -2.883125 25.94945312 -3 27 C-3.66 27.33 -4.32 27.66 -5 28 C-4.76555369 18.00086491 -4.28846503 9.23515958 0 0 Z " fill="#9278D5" transform="translate(148,117)"/>
<path d="M0 0 C5.54403203 0.67886106 11.04714701 1.47883331 16.0625 4.0625 C18.6407932 5.31006122 21.17828807 5.6152211 24 6 C24 6.33 24 6.66 24 7 C16.38432485 7.50771168 9.98675163 6.1366948 3 3 C1.1484375 1.36328125 1.1484375 1.36328125 0 0 Z " fill="#9479D7" transform="translate(168,262)"/>
<path d="M0 0 C3.31309646 0.11147883 6.62521506 0.24170886 9.9375 0.375 C11.32678711 0.42140625 11.32678711 0.42140625 12.74414062 0.46875 C18.72821322 0.72071095 24.19061735 1.53424807 30 3 C30 3.33 30 3.66 30 4 C23.56621961 4.12615256 23.56621961 4.12615256 20.73828125 3.49609375 C17.24376931 2.86299387 13.92372901 2.94400428 10.375 3 C3.33208255 3.11069418 3.33208255 3.11069418 0 2 C0 1.34 0 0.68 0 0 Z " fill="#9173CF" transform="translate(288,87)"/>
<path d="M0 0 C2.68826864 0.11490912 5.37513469 0.24163199 8.0625 0.375 C8.81466797 0.4059375 9.56683594 0.436875 10.34179688 0.46875 C15.18961281 0.72058459 19.38308043 1.49168365 24 3 C23.360625 3.12375 22.72125 3.2475 22.0625 3.375 C21.381875 3.58125 20.70125 3.7875 20 4 C19.67 4.66 19.34 5.32 19 6 C17.5459375 5.566875 17.5459375 5.566875 16.0625 5.125 C12.41594505 4.07039551 8.73958817 3.29166761 5.015625 2.5625 C3 2 3 2 0 0 Z " fill="#956FF2" transform="translate(302,89)"/>
<path d="M0 0 C3.63028129 -0.33770059 5.52706859 -0.28595853 8.6875 1.625 C11.26318036 4.27029334 12.68115517 6.55634962 14 10 C13.67 10.99 13.34 11.98 13 13 C10.972082 10.4651025 8.96141925 7.94648476 7.0625 5.3125 C4.82720636 2.80626167 3.17584711 1.97039773 0 1 C0 0.67 0 0.34 0 0 Z " fill="#9173DF" transform="translate(218,271)"/>
<path d="M0 0 C-0.33 0.66 -0.66 1.32 -1 2 C-1.556875 1.98839844 -2.11375 1.97679688 -2.6875 1.96484375 C-7.89778343 1.90323567 -12.8437951 2.25000656 -18 3 C-18 3.66 -18 4.32 -18 5 C-19.32 4.67 -20.64 4.34 -22 4 C-14.46306332 0.54557069 -8.2802921 -1.72506085 0 0 Z " fill="#8F75D4" transform="translate(192,90)"/>
<path d="M0 0 C0.66 0 1.32 0 2 0 C4.16866452 2.40962725 4.98801462 4.23653146 5.0390625 7.48828125 C4.44599131 14.55400869 4.44599131 14.55400869 2 17 C1.01 16.67 0.02 16.34 -1 16 C-0.319375 15.13375 0.36125 14.2675 1.0625 13.375 C3.28543661 10.1960258 3.28543661 10.1960258 2.875 6.875 C2.11728848 4.38537643 1.29737907 2.24879038 0 0 Z " fill="#9275D6" transform="translate(299,176)"/>
<path d="M0 0 C0.99 0 1.98 0 3 0 C2.814375 1.2375 2.62875 2.475 2.4375 3.75 C2.05288777 6.76279577 1.9125406 9.10010827 3 12 C2.34 12 1.68 12 1 12 C1 11.34 1 10.68 1 10 C0.34 10 -0.32 10 -1 10 C-1.125 3.375 -1.125 3.375 0 0 Z " fill="#9172DC" transform="translate(238,178)"/>
<path d="M0 0 C4.37859255 0.50522222 6.81651224 3.17827222 10 6 C8.1875 6.6875 8.1875 6.6875 6 7 C4.4375 5.625 4.4375 5.625 3 4 C2.01 3.67 1.02 3.34 0 3 C0 2.01 0 1.02 0 0 Z " fill="#9272D8" transform="translate(329,95)"/>
<path d="M0 0 C-2.64 1.98 -5.28 3.96 -8 6 C-8.33 4.68 -8.66 3.36 -9 2 C-4.5 -1.125 -4.5 -1.125 0 0 Z " fill="#9073DD" transform="translate(340,256)"/>
<path d="M0 0 C0.33 0 0.66 0 1 0 C1.20496094 0.91523438 1.40992188 1.83046875 1.62109375 2.7734375 C1.89050781 3.96195313 2.15992188 5.15046875 2.4375 6.375 C2.83775391 8.15003906 2.83775391 8.15003906 3.24609375 9.9609375 C3.85634695 12.89494581 3.85634695 12.89494581 5 15 C4.01 16.485 4.01 16.485 3 18 C1.15433468 14.01606389 0.63977171 10.55623317 0.375 6.1875 C0.30023438 5.02605469 0.22546875 3.86460937 0.1484375 2.66796875 C0.09945312 1.78753906 0.05046875 0.90710938 0 0 Z " fill="#8F76CF" transform="translate(143,219)"/>
<path d="M0 0 C2.31 0.33 4.62 0.66 7 1 C7.33 2.65 7.66 4.3 8 6 C4.63408134 4.55746343 2.48952921 2.66735273 0 0 Z " fill="#9172DB" transform="translate(159,255)"/>
<path d="M0 0 C0.33 0.66 0.66 1.32 1 2 C-0.30406884 4.01920337 -1.63823419 6.01924973 -3 8 C-3.33 8 -3.66 8 -4 8 C-4.25 5.6875 -4.25 5.6875 -4 3 C-2 1.1875 -2 1.1875 0 0 Z " fill="#9278D8" transform="translate(264,289)"/>
<path d="M0 0 C0 0.33 0 0.66 0 1 C-1.45463481 1.38909985 -2.91391207 1.76088029 -4.375 2.125 C-5.59316406 2.43824219 -5.59316406 2.43824219 -6.8359375 2.7578125 C-7.55007813 2.83773438 -8.26421875 2.91765625 -9 3 C-9.66 2.34 -10.32 1.68 -11 1 C-7.2297564 -1.56376565 -4.32597804 -0.83191885 0 0 Z " fill="#8E72D5" transform="translate(286,270)"/>
<path d="M0 0 C3.96 0.33 7.92 0.66 12 1 C12 1.33 12 1.66 12 2 C10.56359829 2.19573608 9.12580496 2.38127816 7.6875 2.5625 C6.88699219 2.66691406 6.08648437 2.77132812 5.26171875 2.87890625 C3 3 3 3 0 2 C0 1.34 0 0.68 0 0 Z " fill="#9680CF" transform="translate(288,87)"/>
<path d="M0 0 C0.99 0.33 1.98 0.66 3 1 C4.99961564 1.03920815 7.00049364 1.04443347 9 1 C9 1.33 9 1.66 9 2 C4.59085217 3.10228696 0.51617599 3.07654536 -4 3 C-2.1875 1.4375 -2.1875 1.4375 0 0 Z " fill="#936EEF" transform="translate(308,265)"/>
<path d="M0 0 C0.99 0 1.98 0 3 0 C2.6875 1.875 2.6875 1.875 2 4 C1.01 4.66 0.02 5.32 -1 6 C-1 2 -1 2 0 0 Z " fill="#9173E2" transform="translate(341,249)"/>
<path d="M0 0 C2.8125 -0.25 2.8125 -0.25 6 0 C7.875 2 7.875 2 9 4 C8.67 4.66 8.34 5.32 8 6 C7.236875 5.38125 6.47375 4.7625 5.6875 4.125 C3.00374191 1.94402948 3.00374191 1.94402948 0 0 Z " fill="#947CD2" transform="translate(218,271)"/>
<path d="M0 0 C2.31 0.66 4.62 1.32 7 2 C6.360625 2.12375 5.72125 2.2475 5.0625 2.375 C4.381875 2.58125 3.70125 2.7875 3 3 C2.67 3.66 2.34 4.32 2 5 C0.68 4.67 -0.64 4.34 -2 4 C-2 3.34 -2 2.68 -2 2 C-1.34 2 -0.68 2 0 2 C0 1.34 0 0.68 0 0 Z " fill="#8F73DD" transform="translate(319,90)"/>
</svg>
